<svg xmlns="http://www.w3.org/2000/svg" xmlns:xlink="http://www.w3.org/1999/xlink" width="500" zoomAndPan="magnify" viewBox="0 0 375 374.999991" height="500" preserveAspectRatio="xMidYMid meet" version="1.0"><defs><g/><clipPath id="8934355d92"><path d="M 56.035156 108.933594 L 310.0625 108.933594 L 310.0625 298.429688 L 56.035156 298.429688 Z M 56.035156 108.933594 " clip-rule="nonzero"/></clipPath><clipPath id="b3c24e0c0d"><path d="M 56.035156 108.933594 L 310.0625 108.933594 L 310.0625 298.429688 L 56.035156 298.429688 Z M 56.035156 108.933594 " clip-rule="nonzero"/></clipPath><clipPath id="4ec6b2e9ad"><path d="M 73.269531 108.933594 L 292.828125 108.933594 C 302.347656 108.933594 310.0625 116.65625 310.0625 126.179688 L 310.0625 281.183594 C 310.0625 290.710938 302.347656 298.429688 292.828125 298.429688 L 73.269531 298.429688 C 63.753906 298.429688 56.035156 290.710938 56.035156 281.183594 L 56.035156 126.179688 C 56.035156 116.65625 63.753906 108.933594 73.269531 108.933594 " clip-rule="nonzero"/></clipPath><clipPath id="4cdebf9fe0"><path d="M 76 70 L 291 70 L 291 225 L 76 225 Z M 76 70 " clip-rule="nonzero"/></clipPath><clipPath id="0a344651e5"><path d="M 75.207031 105.757812 L 268.601562 69.027344 L 291.460938 189.398438 L 98.066406 226.125 Z M 75.207031 105.757812 " clip-rule="nonzero"/></clipPath><clipPath id="a980352c14"><path d="M 76 70 L 291 70 L 291 225 L 76 225 Z M 76 70 " clip-rule="nonzero"/></clipPath><clipPath id="1227c6f6e0"><path d="M 75.207031 105.757812 L 268.601562 69.027344 L 291.460938 189.398438 L 98.066406 226.125 Z M 75.207031 105.757812 " clip-rule="nonzero"/></clipPath><clipPath id="4746cb649e"><path d="M 75.207031 105.761719 L 269.257812 68.90625 L 292.117188 189.269531 L 98.066406 226.125 Z M 75.207031 105.761719 " clip-rule="nonzero"/></clipPath><clipPath id="a057b19c4b"><path d="M 82.589844 104.359375 L 261.21875 70.433594 C 265.296875 69.660156 269.226562 72.328125 270 76.398438 L 290.058594 182.027344 C 290.832031 186.097656 288.15625 190.023438 284.078125 190.796875 L 105.449219 224.722656 C 101.371094 225.496094 97.441406 222.824219 96.667969 218.757812 L 76.605469 113.128906 C 75.835938 109.058594 78.511719 105.132812 82.589844 104.359375 " clip-rule="nonzero"/></clipPath><clipPath id="75c912b6b9"><path d="M 71 92 L 278 92 L 278 232 L 71 232 Z M 71 92 " clip-rule="nonzero"/></clipPath><clipPath id="945ec67f57"><path d="M 71.15625 109.855469 L 267.222656 92.300781 L 278.148438 214.335938 L 82.082031 231.886719 Z M 71.15625 109.855469 " clip-rule="nonzero"/></clipPath><clipPath id="51206b245e"><path d="M 71 92 L 278 92 L 278 232 L 71 232 Z M 71 92 " clip-rule="nonzero"/></clipPath><clipPath id="6dcdc3c0c2"><path d="M 71.15625 109.855469 L 267.222656 92.300781 L 278.148438 214.335938 L 82.082031 231.886719 Z M 71.15625 109.855469 " clip-rule="nonzero"/></clipPath><clipPath id="e7b3a9b883"><path d="M 71.15625 109.855469 L 267.890625 92.246094 L 278.8125 214.273438 L 82.082031 231.882812 Z M 71.15625 109.855469 " clip-rule="nonzero"/></clipPath><clipPath id="10e95a47cc"><path d="M 78.640625 109.1875 L 259.738281 92.972656 C 263.871094 92.605469 267.523438 95.648438 267.890625 99.773438 L 277.476562 206.863281 C 277.847656 210.988281 274.796875 214.632812 270.664062 215 L 89.5625 231.214844 C 85.433594 231.582031 81.78125 228.539062 81.414062 224.414062 L 71.828125 117.324219 C 71.457031 113.199219 74.507812 109.554688 78.640625 109.1875 " clip-rule="nonzero"/></clipPath><clipPath id="8b0a15b814"><path d="M 129.570312 67.457031 L 219.417969 67.457031 L 219.417969 157.308594 L 129.570312 157.308594 Z M 129.570312 67.457031 " clip-rule="nonzero"/></clipPath><clipPath id="e5d7ceebd6"><path d="M 129.570312 67.457031 L 219.417969 67.457031 L 219.417969 157.308594 L 129.570312 157.308594 Z M 129.570312 67.457031 " clip-rule="nonzero"/></clipPath><clipPath id="ebdaa604c9"><path d="M 174.492188 67.457031 C 149.683594 67.457031 129.570312 87.570312 129.570312 112.382812 C 129.570312 137.195312 149.683594 157.308594 174.492188 157.308594 C 199.304688 157.308594 219.414062 137.195312 219.414062 112.382812 C 219.414062 87.570312 199.304688 67.457031 174.492188 67.457031 " clip-rule="nonzero"/></clipPath><clipPath id="32fcb0bbd0"><path d="M 50.234375 119.953125 L 298.542969 119.953125 L 298.542969 307.816406 L 50.234375 307.816406 Z M 50.234375 119.953125 " clip-rule="nonzero"/></clipPath><clipPath id="ff35fe03f4"><path d="M 50.234375 119.953125 L 298.542969 119.953125 L 298.542969 307.816406 L 50.234375 307.816406 Z M 50.234375 119.953125 " clip-rule="nonzero"/></clipPath><clipPath id="10c8a5d06c"><path d="M 67.472656 119.953125 L 281.304688 119.953125 C 290.824219 119.953125 298.539062 127.6875 298.539062 137.230469 L 298.539062 290.542969 C 298.539062 300.082031 290.824219 307.816406 281.304688 307.816406 L 67.472656 307.816406 C 57.953125 307.816406 50.234375 300.082031 50.234375 290.542969 L 50.234375 137.230469 C 50.234375 127.6875 57.953125 119.953125 67.472656 119.953125 " clip-rule="nonzero"/></clipPath><clipPath id="b44a0675ff"><path d="M 216.089844 186.230469 L 324.726562 186.230469 L 324.726562 240.957031 L 216.089844 240.957031 Z M 216.089844 186.230469 " clip-rule="nonzero"/></clipPath><clipPath id="7a914fdce9"><path d="M 216.097656 186.230469 L 324.726562 186.230469 L 324.726562 240.957031 L 216.097656 240.957031 Z M 216.097656 186.230469 " clip-rule="nonzero"/></clipPath><clipPath id="d09829596b"><path d="M 233.339844 186.230469 L 307.476562 186.230469 C 316.996094 186.230469 324.714844 193.914062 324.714844 203.386719 L 324.714844 223.804688 C 324.714844 233.277344 316.996094 240.957031 307.476562 240.957031 L 233.339844 240.957031 C 223.816406 240.957031 216.097656 233.277344 216.097656 223.804688 L 216.097656 203.386719 C 216.097656 193.914062 223.816406 186.230469 233.339844 186.230469 " clip-rule="nonzero"/></clipPath><clipPath id="987917f007"><path d="M 234.101562 200.25 L 261.054688 200.25 L 261.054688 227.203125 L 234.101562 227.203125 Z M 234.101562 200.25 " clip-rule="nonzero"/></clipPath></defs><g clip-path="url(#8934355d92)"><path fill="#42b2fa" d="M 73.269531 108.933594 L 292.828125 108.933594 C 302.347656 108.933594 310.0625 116.65625 310.0625 126.179688 L 310.0625 281.183594 C 310.0625 290.710938 302.347656 298.429688 292.828125 298.429688 L 73.269531 298.429688 C 63.753906 298.429688 56.035156 290.710938 56.035156 281.183594 L 56.035156 126.179688 C 56.035156 116.65625 63.753906 108.933594 73.269531 108.933594 " fill-opacity="1" fill-rule="nonzero"/></g><g clip-path="url(#b3c24e0c0d)"><g clip-path="url(#4ec6b2e9ad)"><path stroke-linecap="butt" transform="matrix(0.816063, 0, 0, 0.816581, 56.036653, 108.934716)" fill="none" stroke-linejoin="miter" d="M 21.11709 -0.00137438 L 290.163176 -0.00137438 C 301.828366 -0.00137438 311.2821 9.45593 311.2821 21.118503 L 311.2821 210.93908 C 311.2821 222.606437 301.828366 232.058958 290.163176 232.058958 L 21.11709 232.058958 C 9.456687 232.058958 -0.00183389 222.606437 -0.00183389 210.93908 L -0.00183389 21.118503 C -0.00183389 9.45593 9.456687 -0.00137438 21.11709 -0.00137438 " stroke="#404040" stroke-width="12.855025" stroke-opacity="1" stroke-miterlimit="4"/></g></g><g clip-path="url(#4cdebf9fe0)"><g clip-path="url(#0a344651e5)"><path fill="#1cc29b" d="M 82.589844 104.359375 L 261.21875 70.433594 C 265.296875 69.660156 269.226562 72.328125 270 76.398438 L 290.058594 182.027344 C 290.832031 186.097656 288.15625 190.023438 284.078125 190.796875 L 105.449219 224.722656 C 101.371094 225.496094 97.441406 222.824219 96.667969 218.757812 L 76.605469 113.128906 C 75.835938 109.058594 78.511719 105.132812 82.589844 104.359375 " fill-opacity="1" fill-rule="nonzero"/></g></g><g clip-path="url(#a980352c14)"><g clip-path="url(#1227c6f6e0)"><g clip-path="url(#4746cb649e)"><g clip-path="url(#a057b19c4b)"><path stroke-linecap="butt" transform="matrix(0.803864, -0.15267, 0.152403, 0.802457, 75.20795, 105.760416)" fill="none" stroke-linejoin="miter" d="M 9.182798 0.00112134 L 231.395696 0.00054884 C 236.4686 0.00185069 240.57852 4.108527 240.579002 9.180931 L 240.57599 140.812202 C 240.576472 145.884606 236.468495 149.995249 231.39559 149.993947 L 9.182693 149.99452 C 4.109788 149.993218 0.00075932 145.881843 -0.000613438 140.814138 L -0.00229212 9.181974 C 0.00191604 4.110463 4.109894 -0.000180508 9.182798 0.00112134 " stroke="#404040" stroke-width="7.345729" stroke-opacity="1" stroke-miterlimit="4"/></g></g></g></g><g clip-path="url(#75c912b6b9)"><g clip-path="url(#945ec67f57)"><path fill="#1cc29b" d="M 78.640625 109.1875 L 259.738281 92.972656 C 263.871094 92.605469 267.523438 95.648438 267.890625 99.773438 L 277.476562 206.863281 C 277.847656 210.988281 274.796875 214.632812 270.664062 215 L 89.5625 231.214844 C 85.433594 231.582031 81.78125 228.539062 81.414062 224.414062 L 71.828125 117.324219 C 71.457031 113.199219 74.507812 109.554688 78.640625 109.1875 " fill-opacity="1" fill-rule="nonzero"/></g></g><g clip-path="url(#51206b245e)"><g clip-path="url(#6dcdc3c0c2)"><g clip-path="url(#e7b3a9b883)"><g clip-path="url(#10e95a47cc)"><path stroke-linecap="butt" transform="matrix(0.814975, -0.0729555, 0.0728278, 0.813548, 71.157701, 109.856126)" fill="none" stroke-linejoin="miter" d="M 9.181655 0.00150692 L 231.394664 -0.00240111 C 236.465455 0.000984926 240.579781 4.110308 240.577252 9.180465 L 240.576505 140.813502 C 240.578731 145.884085 236.467943 149.995246 231.397151 149.99186 L 9.179387 149.995341 C 4.113351 149.992382 -0.000975124 145.883058 0.00155368 140.812902 L 0.00230057 9.179865 C 0.0000743839 4.109282 4.110863 -0.00187912 9.181655 0.00150692 " stroke="#404040" stroke-width="7.345729" stroke-opacity="1" stroke-miterlimit="4"/></g></g></g></g><g clip-path="url(#8b0a15b814)"><path fill="#f1bf3d" d="M 174.492188 67.457031 C 149.683594 67.457031 129.570312 87.570312 129.570312 112.382812 C 129.570312 137.195312 149.683594 157.308594 174.492188 157.308594 C 199.304688 157.308594 219.414062 137.195312 219.414062 112.382812 C 219.414062 87.570312 199.304688 67.457031 174.492188 67.457031 " fill-opacity="1" fill-rule="nonzero"/></g><g clip-path="url(#e5d7ceebd6)"><g clip-path="url(#ebdaa604c9)"><path stroke-linecap="butt" transform="matrix(0.817033, 0, 0, 0.815064, 129.572062, 67.458833)" fill="none" stroke-linejoin="miter" d="M 54.979551 -0.00221077 C 24.615314 -0.00221077 -0.00214176 24.67471 -0.00214176 55.117087 C -0.00214176 85.559464 24.615314 110.236384 54.979551 110.236384 C 85.34857 110.236384 109.961245 85.559464 109.961245 55.117087 C 109.961245 24.67471 85.34857 -0.00221077 54.979551 -0.00221077 " stroke="#404040" stroke-width="7.345729" stroke-opacity="1" stroke-miterlimit="4"/></g></g><g fill="#a9862b" fill-opacity="1"><g transform="translate(157.518774, 133.461005)"><g><path d="M 18.75 -46.425781 L 12.796875 -46.425781 L 12.796875 -42.140625 C 8.988281 -41.546875 5.535156 -39.757812 3.273438 -36.84375 C 1.667969 -34.640625 0.953125 -32.140625 0.953125 -29.699219 C 0.953125 -23.628906 5.355469 -17.976562 11.726562 -17.976562 C 12.082031 -17.976562 12.441406 -17.976562 12.796875 -18.035156 L 12.796875 -5.773438 C 10.117188 -6.488281 7.378906 -8.929688 6.785156 -11.429688 L 6.726562 -11.488281 L 0.714844 -11.429688 L 0.714844 -11.011719 C 1.429688 -4.703125 7.203125 -1.011719 12.796875 -0.0585938 L 12.796875 3.570312 L 18.75 3.570312 L 18.75 -0.0585938 C 25.117188 -1.25 31.070312 -4.105469 31.070312 -12.5 C 31.070312 -20.175781 25.175781 -23.449219 18.75 -23.6875 L 18.75 -36.070312 C 21.1875 -35.710938 23.511719 -33.867188 24.105469 -31.308594 L 30 -31.902344 C 29.222656 -38.210938 24.046875 -41.246094 18.75 -42.140625 Z M 7.917969 -33.390625 L 7.976562 -33.390625 C 9.046875 -34.820312 10.890625 -35.652344 12.796875 -36.128906 L 12.796875 -24.105469 C 9.285156 -24.046875 6.964844 -27.023438 6.964844 -30.117188 C 6.964844 -31.25 7.261719 -32.378906 7.917969 -33.390625 Z M 18.75 -5.773438 L 18.75 -17.675781 C 23.09375 -17.976562 25.058594 -15.175781 25.058594 -12.203125 C 25.058594 -8.988281 22.796875 -5.65625 18.75 -5.773438 Z M 18.75 -5.773438 "/></g></g></g><g clip-path="url(#32fcb0bbd0)"><path fill="#42b2fa" d="M 67.472656 119.953125 L 281.304688 119.953125 C 290.824219 119.953125 298.539062 127.6875 298.539062 137.230469 L 298.539062 290.542969 C 298.539062 300.082031 290.824219 307.816406 281.304688 307.816406 L 67.472656 307.816406 C 57.953125 307.816406 50.234375 300.082031 50.234375 290.542969 L 50.234375 137.230469 C 50.234375 127.6875 57.953125 119.953125 67.472656 119.953125 " fill-opacity="1" fill-rule="nonzero"/></g><g clip-path="url(#ff35fe03f4)"><g clip-path="url(#10c8a5d06c)"><path stroke-linecap="butt" transform="matrix(0.816172, 0, 0, 0.818024, 50.235119, 119.953761)" fill="none" stroke-linejoin="miter" d="M 21.119984 -0.000777389 L 283.113848 -0.000777389 C 294.777483 -0.000777389 304.229957 9.454174 304.229957 21.120055 L 304.229957 208.538198 C 304.229957 220.199304 294.777483 229.654255 283.113848 229.654255 L 21.119984 229.654255 C 9.456349 229.654255 -0.000911329 220.199304 -0.000911329 208.538198 L -0.000911329 21.120055 C -0.000911329 9.454174 9.456349 -0.000777389 21.119984 -0.000777389 " stroke="#404040" stroke-width="12.855025" stroke-opacity="1" stroke-miterlimit="4"/></g></g><g clip-path="url(#b44a0675ff)"><path fill="#c9eaff" d="M 233.339844 186.230469 L 307.476562 186.230469 C 316.996094 186.230469 324.714844 193.914062 324.714844 203.386719 L 324.714844 223.804688 C 324.714844 233.277344 316.996094 240.957031 307.476562 240.957031 L 233.339844 240.957031 C 223.816406 240.957031 216.097656 233.277344 216.097656 223.804688 L 216.097656 203.386719 C 216.097656 193.914062 223.816406 186.230469 233.339844 186.230469 " fill-opacity="1" fill-rule="nonzero"/></g><g clip-path="url(#7a914fdce9)"><g clip-path="url(#d09829596b)"><path stroke-linecap="butt" transform="matrix(0.816513, 0, 0, 0.812443, 216.099439, 186.232313)" fill="none" stroke-linejoin="miter" d="M 21.114662 -0.00226948 L 111.911358 -0.00226948 C 123.570115 -0.00226948 133.023419 9.45512 133.023419 21.114587 L 133.023419 46.246145 C 133.023419 57.905612 123.570115 67.358193 111.911358 67.358193 L 21.114662 67.358193 C 9.451121 67.358193 -0.0021835 57.905612 -0.0021835 46.246145 L -0.0021835 21.114587 C -0.0021835 9.45512 9.451121 -0.00226948 21.114662 -0.00226948 " stroke="#404040" stroke-width="7.345729" stroke-opacity="1" stroke-miterlimit="4"/></g></g><g clip-path="url(#987917f007)"><path fill="#01619f" d="M 247.578125 200.25 C 240.132812 200.25 234.101562 206.285156 234.101562 213.726562 C 234.101562 221.171875 240.132812 227.203125 247.578125 227.203125 C 255.019531 227.203125 261.054688 221.171875 261.054688 213.726562 C 261.054688 206.285156 255.019531 200.25 247.578125 200.25 " fill-opacity="1" fill-rule="nonzero"/></g><path stroke-linecap="round" transform="matrix(11.485297, 0, 0, 11.435216, 84.646787, 147.609864)" fill="none" stroke-linejoin="miter" d="M 0.500104 -0.0000427545 L 2.558782 -0.0000427545 " stroke="#01619f" stroke-width="1" stroke-opacity="1" stroke-miterlimit="4"/><path stroke-linecap="round" transform="matrix(11.485297, 0, 0, 11.435216, 132.878653, 147.609864)" fill="none" stroke-linejoin="miter" d="M 0.499982 -0.0000427545 L 2.559 -0.0000427545 " stroke="#01619f" stroke-width="1" stroke-opacity="1" stroke-miterlimit="4"/><path stroke-linecap="round" transform="matrix(11.485297, 0, 0, 11.435216, 181.110521, 147.609864)" fill="none" stroke-linejoin="miter" d="M 0.49986 -0.0000427545 L 2.558878 -0.0000427545 " stroke="#01619f" stroke-width="1" stroke-opacity="1" stroke-miterlimit="4"/><path stroke-linecap="round" transform="matrix(11.485297, 0, 0, 11.435216, 229.342386, 147.609864)" fill="none" stroke-linejoin="miter" d="M 0.500079 -0.0000427545 L 2.559097 -0.0000427545 " stroke="#01619f" stroke-width="1" stroke-opacity="1" stroke-miterlimit="4"/><path stroke-linecap="round" transform="matrix(11.485297, 0, 0, 11.435216, 84.646787, 279.499962)" fill="none" stroke-linejoin="miter" d="M 0.500104 0.00000335401 L 2.558782 0.00000335401 " stroke="#01619f" stroke-width="1" stroke-opacity="1" stroke-miterlimit="4"/><path stroke-linecap="round" transform="matrix(11.485297, 0, 0, 11.435216, 132.878653, 279.499962)" fill="none" stroke-linejoin="miter" d="M 0.499982 0.00000335401 L 2.559 0.00000335401 " stroke="#01619f" stroke-width="1" stroke-opacity="1" stroke-miterlimit="4"/><path stroke-linecap="round" transform="matrix(11.485297, 0, 0, 11.435216, 181.110521, 279.499962)" fill="none" stroke-linejoin="miter" d="M 0.49986 0.00000335401 L 2.558878 0.00000335401 " stroke="#01619f" stroke-width="1" stroke-opacity="1" stroke-miterlimit="4"/><path stroke-linecap="round" transform="matrix(11.485297, 0, 0, 11.435216, 229.342386, 279.499962)" fill="none" stroke-linejoin="miter" d="M 0.500079 0.00000335401 L 2.559097 0.00000335401 " stroke="#01619f" stroke-width="1" stroke-opacity="1" stroke-miterlimit="4"/></svg>