<svg xmlns="http://www.w3.org/2000/svg" xmlns:xlink="http://www.w3.org/1999/xlink" width="500" zoomAndPan="magnify" viewBox="0 0 375 374.999991" height="500" preserveAspectRatio="xMidYMid meet" version="1.0"><defs><g/><clipPath id="5fb31192db"><path d="M 62.199219 79.246094 L 304.316406 79.246094 L 304.316406 259.859375 L 62.199219 259.859375 Z M 62.199219 79.246094 " clip-rule="nonzero"/></clipPath><clipPath id="7b5f7abcaa"><path d="M 62.199219 79.246094 L 304.316406 79.246094 L 304.316406 259.859375 L 62.199219 259.859375 Z M 62.199219 79.246094 " clip-rule="nonzero"/></clipPath><clipPath id="ebbd8420dc"><path d="M 79.433594 79.246094 L 287.082031 79.246094 C 291.652344 79.246094 296.035156 81.0625 299.269531 84.296875 C 302.5 87.53125 304.316406 91.917969 304.316406 96.492188 L 304.316406 242.613281 C 304.316406 247.1875 302.5 251.574219 299.269531 254.808594 C 296.035156 258.039062 291.652344 259.859375 287.082031 259.859375 L 79.433594 259.859375 C 74.863281 259.859375 70.480469 258.039062 67.246094 254.808594 C 64.015625 251.574219 62.199219 247.1875 62.199219 242.613281 L 62.199219 96.492188 C 62.199219 91.917969 64.015625 87.53125 67.246094 84.296875 C 70.480469 81.0625 74.863281 79.246094 79.433594 79.246094 " clip-rule="nonzero"/></clipPath><clipPath id="e00059af96"><path d="M 81 42 L 286 42 L 286 190 L 81 190 Z M 81 42 " clip-rule="nonzero"/></clipPath><clipPath id="c1eaf11144"><path d="M 80.472656 76.21875 L 264.796875 41.210938 L 286.585938 155.9375 L 102.261719 190.945312 Z M 80.472656 76.21875 " clip-rule="nonzero"/></clipPath><clipPath id="38890eb30e"><path d="M 81 42 L 286 42 L 286 190 L 81 190 Z M 81 42 " clip-rule="nonzero"/></clipPath><clipPath id="f403cc61e6"><path d="M 80.472656 76.21875 L 264.796875 41.210938 L 286.585938 155.9375 L 102.261719 190.945312 Z M 80.472656 76.21875 " clip-rule="nonzero"/></clipPath><clipPath id="9bb0e22d7f"><path d="M 80.472656 76.21875 L 265.425781 41.09375 L 287.214844 155.816406 L 102.261719 190.941406 Z M 80.472656 76.21875 " clip-rule="nonzero"/></clipPath><clipPath id="177503d2ad"><path d="M 87.851562 74.820312 L 257.417969 42.613281 C 261.492188 41.839844 265.425781 44.511719 266.199219 48.582031 L 285.1875 148.566406 C 285.960938 152.636719 283.28125 156.5625 279.207031 157.335938 L 109.640625 189.539062 C 105.566406 190.3125 101.632812 187.644531 100.859375 183.574219 L 81.871094 83.589844 C 81.097656 79.519531 83.777344 75.59375 87.851562 74.820312 " clip-rule="nonzero"/></clipPath><clipPath id="e083f13bdf"><path d="M 77 64 L 274 64 L 274 196 L 77 196 Z M 77 64 " clip-rule="nonzero"/></clipPath><clipPath id="660cde48d0"><path d="M 76.613281 80.121094 L 263.484375 63.394531 L 273.898438 179.703125 L 87.023438 196.433594 Z M 76.613281 80.121094 " clip-rule="nonzero"/></clipPath><clipPath id="ecee762345"><path d="M 77 64 L 274 64 L 274 196 L 77 196 Z M 77 64 " clip-rule="nonzero"/></clipPath><clipPath id="b8bd847f09"><path d="M 76.613281 80.121094 L 263.484375 63.394531 L 273.898438 179.703125 L 87.023438 196.433594 Z M 76.613281 80.121094 " clip-rule="nonzero"/></clipPath><clipPath id="e8ced494c6"><path d="M 76.613281 80.125 L 264.121094 63.339844 L 274.53125 179.644531 L 87.023438 196.429688 Z M 76.613281 80.125 " clip-rule="nonzero"/></clipPath><clipPath id="c19e36e090"><path d="M 84.09375 79.453125 L 256.003906 64.066406 C 260.136719 63.695312 263.785156 66.738281 264.152344 70.863281 L 273.226562 172.230469 C 273.597656 176.359375 270.546875 180.003906 266.414062 180.371094 L 94.507812 195.761719 C 90.375 196.132812 86.722656 193.085938 86.355469 188.960938 L 77.28125 87.59375 C 76.910156 83.46875 79.960938 79.824219 84.09375 79.453125 " clip-rule="nonzero"/></clipPath><clipPath id="d6452c04fa"><path d="M 132.285156 39.714844 L 217.921875 39.714844 L 217.921875 125.351562 L 132.285156 125.351562 Z M 132.285156 39.714844 " clip-rule="nonzero"/></clipPath><clipPath id="30194eafac"><path d="M 132.289062 39.714844 L 217.921875 39.714844 L 217.921875 125.351562 L 132.289062 125.351562 Z M 132.289062 39.714844 " clip-rule="nonzero"/></clipPath><clipPath id="a7dad5648a"><path d="M 175.101562 39.714844 C 151.457031 39.714844 132.289062 58.882812 132.289062 82.53125 C 132.289062 106.179688 151.457031 125.351562 175.101562 125.351562 C 198.75 125.351562 217.917969 106.179688 217.917969 82.53125 C 217.917969 58.882812 198.75 39.714844 175.101562 39.714844 " clip-rule="nonzero"/></clipPath><clipPath id="b798d0e021"><path d="M 56.667969 89.75 L 293.335938 89.75 L 293.335938 268.804688 L 56.667969 268.804688 Z M 56.667969 89.75 " clip-rule="nonzero"/></clipPath><clipPath id="ce3dc85a8c"><path d="M 56.671875 89.75 L 293.335938 89.75 L 293.335938 268.804688 L 56.671875 268.804688 Z M 56.671875 89.75 " clip-rule="nonzero"/></clipPath><clipPath id="abbd9cc241"><path d="M 73.90625 89.75 L 276.097656 89.75 C 280.667969 89.75 285.054688 91.570312 288.285156 94.808594 C 291.519531 98.046875 293.335938 102.441406 293.335938 107.023438 L 293.335938 251.53125 C 293.335938 256.113281 291.519531 260.507812 288.285156 263.746094 C 285.054688 266.984375 280.667969 268.804688 276.097656 268.804688 L 73.90625 268.804688 C 69.335938 268.804688 64.949219 266.984375 61.71875 263.746094 C 58.484375 260.507812 56.671875 256.113281 56.671875 251.53125 L 56.671875 107.023438 C 56.671875 102.441406 58.484375 98.046875 61.71875 94.808594 C 64.949219 91.570312 69.335938 89.75 73.90625 89.75 " clip-rule="nonzero"/></clipPath><clipPath id="5ef33d10cc"><path d="M 214.75 152.917969 L 318.292969 152.917969 L 318.292969 205.078125 L 214.75 205.078125 Z M 214.75 152.917969 " clip-rule="nonzero"/></clipPath><clipPath id="ae4331d667"><path d="M 214.757812 152.917969 L 318.292969 152.917969 L 318.292969 205.078125 L 214.757812 205.078125 Z M 214.757812 152.917969 " clip-rule="nonzero"/></clipPath><clipPath id="3f8f4eb8c0"><path d="M 232 152.917969 L 301.042969 152.917969 C 305.613281 152.917969 310 154.726562 313.234375 157.945312 C 316.464844 161.160156 318.28125 165.523438 318.28125 170.074219 L 318.28125 187.925781 C 318.28125 192.476562 316.464844 196.839844 313.234375 200.054688 C 310 203.273438 305.613281 205.078125 301.042969 205.078125 L 232 205.078125 C 227.425781 205.078125 223.042969 203.273438 219.808594 200.054688 C 216.574219 196.839844 214.757812 192.476562 214.757812 187.925781 L 214.757812 170.074219 C 214.757812 165.523438 216.574219 161.160156 219.808594 157.945312 C 223.042969 154.726562 227.425781 152.917969 232 152.917969 " clip-rule="nonzero"/></clipPath><clipPath id="97dd44ced0"><path d="M 231.914062 166.28125 L 257.605469 166.28125 L 257.605469 191.96875 L 231.914062 191.96875 Z M 231.914062 166.28125 " clip-rule="nonzero"/></clipPath></defs><g clip-path="url(#5fb31192db)"><path fill="#42b2fa" d="M 79.433594 79.246094 L 287.082031 79.246094 C 291.652344 79.246094 296.035156 81.0625 299.269531 84.296875 C 302.5 87.53125 304.316406 91.917969 304.316406 96.492188 L 304.316406 242.613281 C 304.316406 247.1875 302.5 251.574219 299.269531 254.808594 C 296.035156 258.039062 291.652344 259.859375 287.082031 259.859375 L 79.433594 259.859375 C 74.863281 259.859375 70.480469 258.039062 67.246094 254.808594 C 64.015625 251.574219 62.199219 247.1875 62.199219 242.613281 L 62.199219 96.492188 C 62.199219 91.917969 64.015625 87.53125 67.246094 84.296875 C 70.480469 81.0625 74.863281 79.246094 79.433594 79.246094 " fill-opacity="1" fill-rule="nonzero"/></g><g clip-path="url(#7b5f7abcaa)"><g clip-path="url(#ebbd8420dc)"><path stroke-linecap="butt" transform="matrix(0.777806, 0, 0, 0.7783, 62.199624, 79.245888)" fill="none" stroke-linejoin="miter" d="M 22.157149 0.000264877 L 289.123929 0.000264877 C 294.99983 0.000264877 300.634668 2.334077 304.792998 6.489769 C 308.946305 10.645461 311.281599 16.281744 311.281599 22.158937 L 311.281599 209.902862 C 311.281599 215.780055 308.946305 221.416337 304.792998 225.572029 C 300.634668 229.722702 294.99983 232.061534 289.123929 232.061534 L 22.157149 232.061534 C 16.281248 232.061534 10.64641 229.722702 6.48808 225.572029 C 2.334772 221.416337 -0.000521551 215.780055 -0.000521551 209.902862 L -0.000521551 22.158937 C -0.000521551 16.281744 2.334772 10.645461 6.48808 6.489769 C 10.64641 2.334077 16.281248 0.000264877 22.157149 0.000264877 " stroke="#404040" stroke-width="13.487307" stroke-opacity="1" stroke-miterlimit="4"/></g></g><g clip-path="url(#e00059af96)"><g clip-path="url(#c1eaf11144)"><path fill="#1cc29b" d="M 87.851562 74.820312 L 257.417969 42.613281 C 261.492188 41.839844 265.425781 44.511719 266.199219 48.582031 L 285.1875 148.566406 C 285.960938 152.636719 283.28125 156.5625 279.207031 157.335938 L 109.640625 189.539062 C 105.566406 190.3125 101.632812 187.644531 100.859375 183.574219 L 81.871094 83.589844 C 81.097656 79.519531 83.777344 75.59375 87.851562 74.820312 " fill-opacity="1" fill-rule="nonzero"/></g></g><g clip-path="url(#38890eb30e)"><g clip-path="url(#f403cc61e6)"><g clip-path="url(#9bb0e22d7f)"><g clip-path="url(#177503d2ad)"><path stroke-linecap="butt" transform="matrix(0.766179, -0.145513, 0.145259, 0.764838, 80.472179, 76.220393)" fill="none" stroke-linejoin="miter" d="M 9.631066 0.00178758 L 230.946015 -0.00185205 C 236.263512 -0.00142246 240.579567 4.313109 240.580072 9.635001 L 240.579053 140.360995 C 240.579559 145.682887 236.264608 149.994778 230.94711 149.994349 L 9.633096 149.993059 C 4.315599 149.992629 -0.00139025 145.683028 -0.00189591 140.361136 L -0.000876644 9.635141 C -0.0013823 4.313249 4.313569 0.00135799 9.631066 0.00178758 " stroke="#404040" stroke-width="7.707033" stroke-opacity="1" stroke-miterlimit="4"/></g></g></g></g><g clip-path="url(#e083f13bdf)"><g clip-path="url(#660cde48d0)"><path fill="#1cc29b" d="M 84.09375 79.453125 L 256.003906 64.066406 C 260.136719 63.695312 263.785156 66.738281 264.152344 70.863281 L 273.226562 172.230469 C 273.597656 176.359375 270.546875 180.003906 266.414062 180.371094 L 94.507812 195.761719 C 90.375 196.132812 86.722656 193.085938 86.355469 188.960938 L 77.28125 87.59375 C 76.910156 83.46875 79.960938 79.824219 84.09375 79.453125 " fill-opacity="1" fill-rule="nonzero"/></g></g><g clip-path="url(#ecee762345)"><g clip-path="url(#b8bd847f09)"><g clip-path="url(#e8ced494c6)"><g clip-path="url(#c19e36e090)"><path stroke-linecap="butt" transform="matrix(0.776769, -0.0695354, 0.0694137, 0.775409, 76.611803, 80.124084)" fill="none" stroke-linejoin="miter" d="M 9.632277 -0.00151458 L 230.946467 0.00164325 C 236.267115 0.00019827 240.578817 4.311193 240.576164 9.630728 L 240.576102 140.358097 C 240.577991 145.683077 236.265011 149.996448 230.94481 149.992895 L 9.635163 149.995182 C 4.314515 149.996627 -0.00172963 145.680187 0.000923597 140.360652 L 0.000984837 9.633283 C -0.00135081 4.313301 4.311629 -0.0000696055 9.632277 -0.00151458 " stroke="#404040" stroke-width="7.707033" stroke-opacity="1" stroke-miterlimit="4"/></g></g></g></g><g clip-path="url(#d6452c04fa)"><path fill="#f1bf3d" d="M 175.101562 39.714844 C 151.457031 39.714844 132.289062 58.882812 132.289062 82.53125 C 132.289062 106.179688 151.457031 125.351562 175.101562 125.351562 C 198.75 125.351562 217.917969 106.179688 217.917969 82.53125 C 217.917969 58.882812 198.75 39.714844 175.101562 39.714844 " fill-opacity="1" fill-rule="nonzero"/></g><g clip-path="url(#30194eafac)"><g clip-path="url(#a7dad5648a)"><path stroke-linecap="butt" transform="matrix(0.778731, 0, 0, 0.776854, 132.287705, 39.714373)" fill="none" stroke-linejoin="miter" d="M 54.979012 0.000606597 C 24.61611 0.000606597 0.00174269 24.674429 0.00174269 55.115702 C 0.00174269 85.556974 24.61611 110.235825 54.979012 110.235825 C 85.346931 110.235825 109.961298 85.556974 109.961298 55.115702 C 109.961298 24.674429 85.346931 0.000606597 54.979012 0.000606597 " stroke="#404040" stroke-width="7.707033" stroke-opacity="1" stroke-miterlimit="4"/></g></g><g fill="#a9862b" fill-opacity="1"><g transform="translate(158.924276, 102.622379)"><g><path d="M 17.871094 -44.25 L 12.195312 -44.25 L 12.195312 -40.164062 C 8.566406 -39.597656 5.277344 -37.894531 3.121094 -35.117188 C 1.589844 -33.015625 0.90625 -30.632812 0.90625 -28.308594 C 0.90625 -22.523438 5.105469 -17.132812 11.175781 -17.132812 C 11.515625 -17.132812 11.855469 -17.132812 12.195312 -17.1875 L 12.195312 -5.503906 C 9.644531 -6.183594 7.035156 -8.507812 6.46875 -10.890625 L 6.410156 -10.949219 L 0.679688 -10.890625 L 0.679688 -10.496094 C 1.363281 -4.480469 6.863281 -0.964844 12.195312 -0.0585938 L 12.195312 3.402344 L 17.871094 3.402344 L 17.871094 -0.0585938 C 23.941406 -1.191406 29.613281 -3.914062 29.613281 -11.914062 C 29.613281 -19.230469 23.996094 -22.351562 17.871094 -22.578125 L 17.871094 -34.378906 C 20.195312 -34.039062 22.410156 -32.28125 22.976562 -29.839844 L 28.59375 -30.40625 C 27.855469 -36.421875 22.917969 -39.3125 17.871094 -40.164062 Z M 7.546875 -31.824219 L 7.601562 -31.824219 C 8.621094 -33.1875 10.382812 -33.980469 12.195312 -34.433594 L 12.195312 -22.976562 C 8.851562 -22.917969 6.636719 -25.753906 6.636719 -28.707031 C 6.636719 -29.785156 6.921875 -30.859375 7.546875 -31.824219 Z M 17.871094 -5.503906 L 17.871094 -16.847656 C 22.011719 -17.132812 23.882812 -14.464844 23.882812 -11.628906 C 23.882812 -8.566406 21.726562 -5.390625 17.871094 -5.503906 Z M 17.871094 -5.503906 "/></g></g></g><g clip-path="url(#b798d0e021)"><path fill="#42b2fa" d="M 73.90625 89.75 L 276.097656 89.75 C 280.667969 89.75 285.054688 91.570312 288.285156 94.808594 C 291.519531 98.046875 293.335938 102.441406 293.335938 107.023438 L 293.335938 251.53125 C 293.335938 256.113281 291.519531 260.507812 288.285156 263.746094 C 285.054688 266.984375 280.667969 268.804688 276.097656 268.804688 L 73.90625 268.804688 C 69.335938 268.804688 64.949219 266.984375 61.71875 263.746094 C 58.484375 260.507812 56.671875 256.113281 56.671875 251.53125 L 56.671875 107.023438 C 56.671875 102.441406 58.484375 98.046875 61.71875 94.808594 C 64.949219 91.570312 69.335938 89.75 73.90625 89.75 " fill-opacity="1" fill-rule="nonzero"/></g><g clip-path="url(#ce3dc85a8c)"><g clip-path="url(#abbd9cc241)"><path stroke-linecap="butt" transform="matrix(0.77791, 0, 0, 0.779675, 56.670066, 89.748364)" fill="none" stroke-linejoin="miter" d="M 22.157042 0.00209869 L 282.073242 0.00209869 C 287.94836 0.00209869 293.587468 2.336805 297.740222 6.490179 C 301.897998 10.643552 304.23298 16.279915 304.23298 22.156763 L 304.23298 207.500418 C 304.23298 213.377266 301.897998 219.013629 297.740222 223.167002 C 293.587468 227.320376 287.94836 229.655082 282.073242 229.655082 L 22.157042 229.655082 C 16.281925 229.655082 10.642816 227.320376 6.490063 223.167002 C 2.332287 219.013629 0.002326 213.377266 0.002326 207.500418 L 0.002326 22.156763 C 0.002326 16.279915 2.332287 10.643552 6.490063 6.490179 C 10.642816 2.336805 16.281925 0.00209869 22.157042 0.00209869 " stroke="#404040" stroke-width="13.487307" stroke-opacity="1" stroke-miterlimit="4"/></g></g><g clip-path="url(#5ef33d10cc)"><path fill="#c9eaff" d="M 232 152.917969 L 301.042969 152.917969 C 305.613281 152.917969 310 154.726562 313.234375 157.945312 C 316.464844 161.160156 318.28125 165.523438 318.28125 170.074219 L 318.28125 187.925781 C 318.28125 192.476562 316.464844 196.839844 313.234375 200.054688 C 310 203.273438 305.613281 205.078125 301.042969 205.078125 L 232 205.078125 C 227.425781 205.078125 223.042969 203.273438 219.808594 200.054688 C 216.574219 196.839844 214.757812 192.476562 214.757812 187.925781 L 214.757812 170.074219 C 214.757812 165.523438 216.574219 161.160156 219.808594 157.945312 C 223.042969 154.726562 227.425781 152.917969 232 152.917969 " fill-opacity="1" fill-rule="nonzero"/></g><g clip-path="url(#ae4331d667)"><g clip-path="url(#3f8f4eb8c0)"><path stroke-linecap="butt" transform="matrix(0.778235, 0, 0, 0.774356, 214.75871, 152.919775)" fill="none" stroke-linejoin="miter" d="M 22.154336 -0.00233227 L 110.871663 -0.00233227 C 116.744324 -0.00233227 122.381074 2.333277 126.537111 6.489956 C 130.688128 10.641591 133.022134 16.276312 133.022134 22.15317 L 133.022134 45.206595 C 133.022134 51.083453 130.688128 56.718174 126.537111 60.869809 C 122.381074 65.026488 116.744324 67.357053 110.871663 67.357053 L 22.154336 67.357053 C 16.276656 67.357053 10.644926 65.026488 6.488889 60.869809 C 2.332852 56.718174 -0.00115376 51.083453 -0.00115376 45.206595 L -0.00115376 22.15317 C -0.00115376 16.276312 2.332852 10.641591 6.488889 6.489956 C 10.644926 2.333277 16.276656 -0.00233227 22.154336 -0.00233227 " stroke="#404040" stroke-width="7.707033" stroke-opacity="1" stroke-miterlimit="4"/></g></g><g clip-path="url(#97dd44ced0)"><path fill="#01619f" d="M 244.761719 166.28125 C 237.667969 166.28125 231.914062 172.03125 231.914062 179.125 C 231.914062 186.21875 237.667969 191.96875 244.761719 191.96875 C 251.855469 191.96875 257.605469 186.21875 257.605469 179.125 C 257.605469 172.03125 251.855469 166.28125 244.761719 166.28125 " fill-opacity="1" fill-rule="nonzero"/></g><path stroke-linecap="round" transform="matrix(10.946869, 0, 0, 10.899135, 89.468523, 116.10796)" fill="none" stroke-linejoin="miter" d="M 0.49995 0.000129792 L 2.5589 0.000129792 " stroke="#01619f" stroke-width="1" stroke-opacity="1" stroke-miterlimit="4"/><path stroke-linecap="round" transform="matrix(10.946869, 0, 0, 10.899135, 135.439287, 116.10796)" fill="none" stroke-linejoin="miter" d="M 0.500123 0.000129792 L 2.559073 0.000129792 " stroke="#01619f" stroke-width="1" stroke-opacity="1" stroke-miterlimit="4"/><path stroke-linecap="round" transform="matrix(10.946869, 0, 0, 10.899135, 181.410067, 116.10796)" fill="none" stroke-linejoin="miter" d="M 0.499937 0.000129792 L 2.558888 0.000129792 " stroke="#01619f" stroke-width="1" stroke-opacity="1" stroke-miterlimit="4"/><path stroke-linecap="round" transform="matrix(10.946869, 0, 0, 10.899135, 227.380814, 116.10796)" fill="none" stroke-linejoin="miter" d="M 0.500112 0.000129792 L 2.559062 0.000129792 " stroke="#01619f" stroke-width="1" stroke-opacity="1" stroke-miterlimit="4"/><path stroke-linecap="round" transform="matrix(10.946869, 0, 0, 10.899135, 89.468523, 241.815042)" fill="none" stroke-linejoin="miter" d="M 0.49995 0.000125196 L 2.5589 0.000125196 " stroke="#01619f" stroke-width="1" stroke-opacity="1" stroke-miterlimit="4"/><path stroke-linecap="round" transform="matrix(10.946869, 0, 0, 10.899135, 135.439287, 241.815042)" fill="none" stroke-linejoin="miter" d="M 0.500123 0.000125196 L 2.559073 0.000125196 " stroke="#01619f" stroke-width="1" stroke-opacity="1" stroke-miterlimit="4"/><path stroke-linecap="round" transform="matrix(10.946869, 0, 0, 10.899135, 181.410067, 241.815042)" fill="none" stroke-linejoin="miter" d="M 0.499937 0.000125196 L 2.558888 0.000125196 " stroke="#01619f" stroke-width="1" stroke-opacity="1" stroke-miterlimit="4"/><path stroke-linecap="round" transform="matrix(10.946869, 0, 0, 10.899135, 227.380814, 241.815042)" fill="none" stroke-linejoin="miter" d="M 0.500112 0.000125196 L 2.559062 0.000125196 " stroke="#01619f" stroke-width="1" stroke-opacity="1" stroke-miterlimit="4"/><g fill="#404040" fill-opacity="1"><g transform="translate(90.24218, 326.449959)"><g><path d="M 12.40625 -32.578125 C 12.96875 -31.535156 13.617188 -30.253906 14.359375 -28.734375 C 15.097656 -27.222656 15.863281 -25.582031 16.65625 -23.8125 C 17.457031 -22.039062 18.25 -20.226562 19.03125 -18.375 C 19.8125 -16.53125 20.550781 -14.789062 21.25 -13.15625 C 21.9375 -14.789062 22.671875 -16.53125 23.453125 -18.375 C 24.234375 -20.226562 25.023438 -22.039062 25.828125 -23.8125 C 26.628906 -25.582031 27.394531 -27.222656 28.125 -28.734375 C 28.863281 -30.253906 29.515625 -31.535156 30.078125 -32.578125 L 36.75 -32.578125 C 37.0625 -30.410156 37.347656 -27.988281 37.609375 -25.3125 C 37.878906 -22.632812 38.117188 -19.84375 38.328125 -16.9375 C 38.535156 -14.039062 38.722656 -11.132812 38.890625 -8.21875 C 39.066406 -5.3125 39.21875 -2.570312 39.34375 0 L 32.1875 0 C 32.09375 -3.164062 31.96875 -6.613281 31.8125 -10.34375 C 31.65625 -14.070312 31.421875 -17.832031 31.109375 -21.625 C 30.546875 -20.300781 29.921875 -18.84375 29.234375 -17.25 C 28.546875 -15.65625 27.863281 -14.054688 27.1875 -12.453125 C 26.507812 -10.859375 25.859375 -9.332031 25.234375 -7.875 C 24.609375 -6.414062 24.078125 -5.171875 23.640625 -4.140625 L 18.515625 -4.140625 C 18.078125 -5.171875 17.546875 -6.414062 16.921875 -7.875 C 16.296875 -9.332031 15.644531 -10.859375 14.96875 -12.453125 C 14.289062 -14.054688 13.609375 -15.65625 12.921875 -17.25 C 12.234375 -18.84375 11.609375 -20.300781 11.046875 -21.625 C 10.734375 -17.832031 10.5 -14.070312 10.34375 -10.34375 C 10.1875 -6.613281 10.0625 -3.164062 9.96875 0 L 2.8125 0 C 2.945312 -2.570312 3.097656 -5.3125 3.265625 -8.21875 C 3.441406 -11.132812 3.628906 -14.039062 3.828125 -16.9375 C 4.035156 -19.84375 4.269531 -22.632812 4.53125 -25.3125 C 4.800781 -27.988281 5.09375 -30.410156 5.40625 -32.578125 Z M 12.40625 -32.578125 "/></g></g></g><g fill="#404040" fill-opacity="1"><g transform="translate(132.394109, 326.449959)"><g><path d="M 12.734375 -4.890625 C 13.421875 -4.890625 14.078125 -4.90625 14.703125 -4.9375 C 15.335938 -4.96875 15.84375 -5.015625 16.21875 -5.078125 L 16.21875 -10.390625 C 15.9375 -10.453125 15.507812 -10.515625 14.9375 -10.578125 C 14.375 -10.640625 13.859375 -10.671875 13.390625 -10.671875 C 12.734375 -10.671875 12.113281 -10.628906 11.53125 -10.546875 C 10.957031 -10.472656 10.453125 -10.328125 10.015625 -10.109375 C 9.578125 -9.890625 9.226562 -9.585938 8.96875 -9.203125 C 8.71875 -8.828125 8.59375 -8.359375 8.59375 -7.796875 C 8.59375 -6.703125 8.960938 -5.941406 9.703125 -5.515625 C 10.441406 -5.097656 11.453125 -4.890625 12.734375 -4.890625 Z M 12.171875 -25.375 C 14.242188 -25.375 15.96875 -25.140625 17.34375 -24.671875 C 18.71875 -24.203125 19.820312 -23.53125 20.65625 -22.65625 C 21.488281 -21.78125 22.078125 -20.710938 22.421875 -19.453125 C 22.765625 -18.203125 22.9375 -16.8125 22.9375 -15.28125 L 22.9375 -0.703125 C 21.9375 -0.484375 20.539062 -0.226562 18.75 0.0625 C 16.96875 0.363281 14.804688 0.515625 12.265625 0.515625 C 10.671875 0.515625 9.222656 0.375 7.921875 0.09375 C 6.617188 -0.1875 5.5 -0.644531 4.5625 -1.28125 C 3.625 -1.925781 2.898438 -2.765625 2.390625 -3.796875 C 1.890625 -4.835938 1.640625 -6.109375 1.640625 -7.609375 C 1.640625 -9.054688 1.929688 -10.28125 2.515625 -11.28125 C 3.097656 -12.28125 3.875 -13.078125 4.84375 -13.671875 C 5.8125 -14.265625 6.921875 -14.695312 8.171875 -14.96875 C 9.429688 -15.238281 10.734375 -15.375 12.078125 -15.375 C 12.984375 -15.375 13.789062 -15.332031 14.5 -15.25 C 15.207031 -15.175781 15.78125 -15.078125 16.21875 -14.953125 L 16.21875 -15.609375 C 16.21875 -16.796875 15.851562 -17.75 15.125 -18.46875 C 14.40625 -19.1875 13.15625 -19.546875 11.375 -19.546875 C 10.1875 -19.546875 9.007812 -19.457031 7.84375 -19.28125 C 6.6875 -19.113281 5.6875 -18.875 4.84375 -18.5625 L 3.953125 -24.203125 C 4.359375 -24.328125 4.863281 -24.457031 5.46875 -24.59375 C 6.082031 -24.738281 6.75 -24.863281 7.46875 -24.96875 C 8.1875 -25.082031 8.945312 -25.175781 9.75 -25.25 C 10.550781 -25.332031 11.359375 -25.375 12.171875 -25.375 Z M 12.171875 -25.375 "/></g></g></g><g fill="#404040" fill-opacity="1"><g transform="translate(158.380756, 326.449959)"><g><path d="M 3.296875 -23.875 C 4.484375 -24.21875 6.015625 -24.535156 7.890625 -24.828125 C 9.773438 -25.128906 11.75 -25.28125 13.8125 -25.28125 C 15.914062 -25.28125 17.664062 -25.003906 19.0625 -24.453125 C 20.457031 -23.910156 21.5625 -23.140625 22.375 -22.140625 C 23.1875 -21.140625 23.765625 -19.945312 24.109375 -18.5625 C 24.453125 -17.1875 24.625 -15.648438 24.625 -13.953125 L 24.625 0 L 17.625 0 L 17.625 -13.109375 C 17.625 -15.367188 17.328125 -16.96875 16.734375 -17.90625 C 16.140625 -18.84375 15.023438 -19.3125 13.390625 -19.3125 C 12.890625 -19.3125 12.359375 -19.285156 11.796875 -19.234375 C 11.234375 -19.191406 10.734375 -19.140625 10.296875 -19.078125 L 10.296875 0 L 3.296875 0 Z M 3.296875 -23.875 "/></g></g></g><g fill="#404040" fill-opacity="1"><g transform="translate(186.059115, 326.449959)"><g><path d="M 2.109375 -12.171875 C 2.109375 -14.367188 2.445312 -16.285156 3.125 -17.921875 C 3.800781 -19.566406 4.6875 -20.9375 5.78125 -22.03125 C 6.875 -23.132812 8.132812 -23.96875 9.5625 -24.53125 C 10.988281 -25.09375 12.453125 -25.375 13.953125 -25.375 C 17.460938 -25.375 20.234375 -24.300781 22.265625 -22.15625 C 24.304688 -20.007812 25.328125 -16.851562 25.328125 -12.6875 C 25.328125 -12.28125 25.3125 -11.832031 25.28125 -11.34375 C 25.25 -10.863281 25.21875 -10.4375 25.1875 -10.0625 L 9.3125 -10.0625 C 9.46875 -8.613281 10.140625 -7.46875 11.328125 -6.625 C 12.515625 -5.78125 14.113281 -5.359375 16.125 -5.359375 C 17.40625 -5.359375 18.664062 -5.472656 19.90625 -5.703125 C 21.144531 -5.941406 22.15625 -6.234375 22.9375 -6.578125 L 23.875 -0.890625 C 23.5 -0.703125 23 -0.515625 22.375 -0.328125 C 21.75 -0.140625 21.050781 0.0195312 20.28125 0.15625 C 19.507812 0.300781 18.6875 0.421875 17.8125 0.515625 C 16.9375 0.609375 16.0625 0.65625 15.1875 0.65625 C 12.957031 0.65625 11.019531 0.328125 9.375 -0.328125 C 7.726562 -0.984375 6.363281 -1.882812 5.28125 -3.03125 C 4.207031 -4.175781 3.410156 -5.53125 2.890625 -7.09375 C 2.367188 -8.664062 2.109375 -10.359375 2.109375 -12.171875 Z M 18.5625 -14.859375 C 18.53125 -15.453125 18.425781 -16.03125 18.25 -16.59375 C 18.082031 -17.15625 17.816406 -17.65625 17.453125 -18.09375 C 17.097656 -18.53125 16.644531 -18.890625 16.09375 -19.171875 C 15.550781 -19.453125 14.867188 -19.59375 14.046875 -19.59375 C 13.265625 -19.59375 12.59375 -19.457031 12.03125 -19.1875 C 11.46875 -18.925781 11 -18.578125 10.625 -18.140625 C 10.25 -17.703125 9.957031 -17.191406 9.75 -16.609375 C 9.550781 -16.035156 9.40625 -15.453125 9.3125 -14.859375 Z M 18.5625 -14.859375 "/></g></g></g><g fill="#404040" fill-opacity="1"><g transform="translate(213.502514, 326.449959)"><g><path d="M 25.234375 -24.71875 C 23.828125 -19.957031 22.351562 -15.492188 20.8125 -11.328125 C 19.28125 -7.160156 17.609375 -3.117188 15.796875 0.796875 C 15.140625 2.203125 14.476562 3.398438 13.8125 4.390625 C 13.15625 5.378906 12.4375 6.191406 11.65625 6.828125 C 10.875 7.472656 9.988281 7.941406 9 8.234375 C 8.007812 8.535156 6.859375 8.6875 5.546875 8.6875 C 4.453125 8.6875 3.441406 8.582031 2.515625 8.375 C 1.585938 8.175781 0.828125 7.953125 0.234375 7.703125 L 1.453125 2.109375 C 2.171875 2.359375 2.8125 2.53125 3.375 2.625 C 3.945312 2.71875 4.546875 2.765625 5.171875 2.765625 C 6.421875 2.765625 7.382812 2.425781 8.0625 1.75 C 8.738281 1.082031 9.3125 0.15625 9.78125 -1.03125 C 8.175781 -4.164062 6.570312 -7.679688 4.96875 -11.578125 C 3.375 -15.484375 1.875 -19.863281 0.46875 -24.71875 L 7.890625 -24.71875 C 8.203125 -23.5 8.570312 -22.175781 9 -20.75 C 9.425781 -19.320312 9.875 -17.878906 10.34375 -16.421875 C 10.8125 -14.960938 11.285156 -13.546875 11.765625 -12.171875 C 12.253906 -10.796875 12.71875 -9.539062 13.15625 -8.40625 C 13.5625 -9.539062 13.984375 -10.796875 14.421875 -12.171875 C 14.867188 -13.546875 15.300781 -14.960938 15.71875 -16.421875 C 16.144531 -17.878906 16.550781 -19.320312 16.9375 -20.75 C 17.332031 -22.175781 17.6875 -23.5 18 -24.71875 Z M 25.234375 -24.71875 "/></g></g></g><g fill="#404040" fill-opacity="1"><g transform="translate(239.207202, 326.449959)"><g><path d="M 14 -36.46875 C 15.320312 -36.46875 16.53125 -36.332031 17.625 -36.0625 C 18.71875 -35.800781 19.5625 -35.546875 20.15625 -35.296875 L 18.796875 -29.703125 C 18.171875 -29.984375 17.488281 -30.191406 16.75 -30.328125 C 16.019531 -30.472656 15.34375 -30.546875 14.71875 -30.546875 C 13.863281 -30.546875 13.144531 -30.425781 12.5625 -30.1875 C 11.988281 -29.957031 11.535156 -29.640625 11.203125 -29.234375 C 10.878906 -28.828125 10.644531 -28.34375 10.5 -27.78125 C 10.363281 -27.21875 10.296875 -26.601562 10.296875 -25.9375 L 10.296875 -24.71875 L 18.9375 -24.71875 L 18.9375 -18.890625 L 10.296875 -18.890625 L 10.296875 0 L 3.296875 0 L 3.296875 -26.03125 C 3.296875 -29.226562 4.191406 -31.765625 5.984375 -33.640625 C 7.785156 -35.523438 10.457031 -36.46875 14 -36.46875 Z M 14 -36.46875 "/></g></g></g><g fill="#404040" fill-opacity="1"><g transform="translate(259.037878, 326.449959)"><g><path d="M 25.234375 -24.71875 C 23.828125 -19.957031 22.351562 -15.492188 20.8125 -11.328125 C 19.28125 -7.160156 17.609375 -3.117188 15.796875 0.796875 C 15.140625 2.203125 14.476562 3.398438 13.8125 4.390625 C 13.15625 5.378906 12.4375 6.191406 11.65625 6.828125 C 10.875 7.472656 9.988281 7.941406 9 8.234375 C 8.007812 8.535156 6.859375 8.6875 5.546875 8.6875 C 4.453125 8.6875 3.441406 8.582031 2.515625 8.375 C 1.585938 8.175781 0.828125 7.953125 0.234375 7.703125 L 1.453125 2.109375 C 2.171875 2.359375 2.8125 2.53125 3.375 2.625 C 3.945312 2.71875 4.546875 2.765625 5.171875 2.765625 C 6.421875 2.765625 7.382812 2.425781 8.0625 1.75 C 8.738281 1.082031 9.3125 0.15625 9.78125 -1.03125 C 8.175781 -4.164062 6.570312 -7.679688 4.96875 -11.578125 C 3.375 -15.484375 1.875 -19.863281 0.46875 -24.71875 L 7.890625 -24.71875 C 8.203125 -23.5 8.570312 -22.175781 9 -20.75 C 9.425781 -19.320312 9.875 -17.878906 10.34375 -16.421875 C 10.8125 -14.960938 11.285156 -13.546875 11.765625 -12.171875 C 12.253906 -10.796875 12.71875 -9.539062 13.15625 -8.40625 C 13.5625 -9.539062 13.984375 -10.796875 14.421875 -12.171875 C 14.867188 -13.546875 15.300781 -14.960938 15.71875 -16.421875 C 16.144531 -17.878906 16.550781 -19.320312 16.9375 -20.75 C 17.332031 -22.175781 17.6875 -23.5 18 -24.71875 Z M 25.234375 -24.71875 "/></g></g></g></svg>