<svg xmlns="http://www.w3.org/2000/svg" xmlns:xlink="http://www.w3.org/1999/xlink" width="1000" zoomAndPan="magnify" viewBox="0 0 750 299.999988" height="400" preserveAspectRatio="xMidYMid meet" version="1.0"><defs><g/><clipPath id="56537a8982"><path d="M 65.066406 86.003906 L 271.980469 86.003906 L 271.980469 240.355469 L 65.066406 240.355469 Z M 65.066406 86.003906 " clip-rule="nonzero"/></clipPath><clipPath id="b47c6f214f"><path d="M 65.066406 86.007812 L 271.980469 86.007812 L 271.980469 240.355469 L 65.066406 240.355469 Z M 65.066406 86.007812 " clip-rule="nonzero"/></clipPath><clipPath id="eb45612718"><path d="M 82.300781 86.007812 L 254.746094 86.007812 C 264.261719 86.007812 271.980469 93.726562 271.980469 103.25 L 271.980469 223.113281 C 271.980469 232.636719 264.261719 240.355469 254.746094 240.355469 L 82.300781 240.355469 C 72.78125 240.355469 65.066406 232.636719 65.066406 223.113281 L 65.066406 103.25 C 65.066406 93.726562 72.78125 86.007812 82.300781 86.007812 " clip-rule="nonzero"/></clipPath><clipPath id="f93c6c321b"><path d="M 81 54 L 256 54 L 256 181 L 81 181 Z M 81 54 " clip-rule="nonzero"/></clipPath><clipPath id="66b51a4959"><path d="M 80.683594 83.417969 L 238.207031 53.5 L 256.828125 151.546875 L 99.304688 181.460938 Z M 80.683594 83.417969 " clip-rule="nonzero"/></clipPath><clipPath id="8b1ddfaf1a"><path d="M 81 54 L 256 54 L 256 181 L 81 181 Z M 81 54 " clip-rule="nonzero"/></clipPath><clipPath id="4834bbd28c"><path d="M 80.683594 83.417969 L 238.207031 53.5 L 256.828125 151.546875 L 99.304688 181.460938 Z M 80.683594 83.417969 " clip-rule="nonzero"/></clipPath><clipPath id="13216b8095"><path d="M 80.683594 83.421875 L 238.742188 53.402344 L 257.363281 151.441406 L 99.300781 181.460938 Z M 80.683594 83.421875 " clip-rule="nonzero"/></clipPath><clipPath id="dcc388e2b8"><path d="M 88.0625 82.019531 L 230.824219 54.90625 C 234.902344 54.128906 238.832031 56.800781 239.605469 60.871094 L 255.425781 144.175781 C 256.199219 148.246094 253.523438 152.171875 249.445312 152.945312 L 106.683594 180.058594 C 102.605469 180.832031 98.675781 178.160156 97.902344 174.09375 L 82.082031 90.789062 C 81.308594 86.71875 83.988281 82.792969 88.0625 82.019531 " clip-rule="nonzero"/></clipPath><clipPath id="8197ad6ae5"><path d="M 78 73 L 246 73 L 246 186 L 78 186 Z M 78 73 " clip-rule="nonzero"/></clipPath><clipPath id="3f69671bb1"><path d="M 77.382812 86.753906 L 237.085938 72.457031 L 245.984375 171.859375 L 86.28125 186.152344 Z M 77.382812 86.753906 " clip-rule="nonzero"/></clipPath><clipPath id="15c0a803fe"><path d="M 78 73 L 246 73 L 246 186 L 78 186 Z M 78 73 " clip-rule="nonzero"/></clipPath><clipPath id="5cb2defb45"><path d="M 77.382812 86.753906 L 237.085938 72.457031 L 245.984375 171.859375 L 86.28125 186.152344 Z M 77.382812 86.753906 " clip-rule="nonzero"/></clipPath><clipPath id="13b6a576b3"><path d="M 77.382812 86.757812 L 237.628906 72.410156 L 246.527344 171.808594 L 86.28125 186.152344 Z M 77.382812 86.757812 " clip-rule="nonzero"/></clipPath><clipPath id="9db0f5c3c4"><path d="M 84.867188 86.085938 L 229.601562 73.128906 C 233.734375 72.761719 237.382812 75.804688 237.753906 79.929688 L 245.3125 164.386719 C 245.683594 168.511719 242.632812 172.15625 238.5 172.523438 L 93.765625 185.480469 C 89.632812 185.851562 85.980469 182.808594 85.613281 178.683594 L 78.050781 94.226562 C 77.683594 90.101562 80.734375 86.457031 84.867188 86.085938 " clip-rule="nonzero"/></clipPath><clipPath id="72e1974041"><path d="M 124.960938 52.222656 L 198.144531 52.222656 L 198.144531 125.40625 L 124.960938 125.40625 Z M 124.960938 52.222656 " clip-rule="nonzero"/></clipPath><clipPath id="54e8867cca"><path d="M 124.964844 52.222656 L 198.144531 52.222656 L 198.144531 125.40625 L 124.964844 125.40625 Z M 124.964844 52.222656 " clip-rule="nonzero"/></clipPath><clipPath id="61fb75f7a0"><path d="M 161.554688 52.222656 C 141.347656 52.222656 124.964844 68.605469 124.964844 88.816406 C 124.964844 109.023438 141.347656 125.40625 161.554688 125.40625 C 181.761719 125.40625 198.144531 109.023438 198.144531 88.816406 C 198.144531 68.605469 181.761719 52.222656 161.554688 52.222656 " clip-rule="nonzero"/></clipPath><clipPath id="3871fb1ae3"><path d="M 60.339844 94.980469 L 262.59375 94.980469 L 262.59375 248.003906 L 60.339844 248.003906 Z M 60.339844 94.980469 " clip-rule="nonzero"/></clipPath><clipPath id="ba1f8216ef"><path d="M 60.339844 94.980469 L 262.59375 94.980469 L 262.59375 248.003906 L 60.339844 248.003906 Z M 60.339844 94.980469 " clip-rule="nonzero"/></clipPath><clipPath id="856265cdc0"><path d="M 77.578125 94.980469 L 245.359375 94.980469 C 254.878906 94.980469 262.59375 102.714844 262.59375 112.257812 L 262.59375 230.726562 C 262.59375 240.269531 254.878906 248.003906 245.359375 248.003906 L 77.578125 248.003906 C 68.058594 248.003906 60.339844 240.269531 60.339844 230.726562 L 60.339844 112.257812 C 60.339844 102.714844 68.058594 94.980469 77.578125 94.980469 " clip-rule="nonzero"/></clipPath><clipPath id="244d31e82c"><path d="M 195.4375 148.96875 L 283.921875 148.96875 L 283.921875 193.542969 L 195.4375 193.542969 Z M 195.4375 148.96875 " clip-rule="nonzero"/></clipPath><clipPath id="52668b06fb"><path d="M 195.445312 148.96875 L 283.921875 148.96875 L 283.921875 193.542969 L 195.445312 193.542969 Z M 195.445312 148.96875 " clip-rule="nonzero"/></clipPath><clipPath id="d83aa64b9e"><path d="M 212.683594 148.96875 L 266.675781 148.96875 C 276.195312 148.96875 283.914062 156.648438 283.914062 166.121094 L 283.914062 176.390625 C 283.914062 185.863281 276.195312 193.542969 266.675781 193.542969 L 212.683594 193.542969 C 203.164062 193.542969 195.445312 185.863281 195.445312 176.390625 L 195.445312 166.121094 C 195.445312 156.648438 203.164062 148.96875 212.683594 148.96875 " clip-rule="nonzero"/></clipPath><clipPath id="873648936e"><path d="M 210.105469 160.386719 L 232.0625 160.386719 L 232.0625 182.339844 L 210.105469 182.339844 Z M 210.105469 160.386719 " clip-rule="nonzero"/></clipPath></defs><g clip-path="url(#56537a8982)"><path fill="#42b2fa" d="M 82.300781 86.007812 L 254.746094 86.007812 C 264.261719 86.007812 271.980469 93.726562 271.980469 103.25 L 271.980469 223.113281 C 271.980469 232.636719 264.261719 240.355469 254.746094 240.355469 L 82.300781 240.355469 C 72.78125 240.355469 65.066406 232.636719 65.066406 223.113281 L 65.066406 103.25 C 65.066406 93.726562 72.78125 86.007812 82.300781 86.007812 " fill-opacity="1" fill-rule="nonzero"/></g><g clip-path="url(#b47c6f214f)"><g clip-path="url(#eb45612718)"><path stroke-linecap="butt" transform="matrix(0.664711, 0, 0, 0.665133, 65.066911, 86.005935)" fill="none" stroke-linejoin="miter" d="M 25.926863 0.00282338 L 285.355885 0.00282338 C 299.671318 0.00282338 311.283508 11.607647 311.283508 25.925744 L 311.283508 206.135266 C 311.283508 220.453363 299.671318 232.058187 285.355885 232.058187 L 25.926863 232.058187 C 11.605554 232.058187 -0.000759783 220.453363 -0.000759783 206.135266 L -0.000759783 25.925744 C -0.000759783 11.607647 11.605554 0.00282338 25.926863 0.00282338 " stroke="#404040" stroke-width="15.782065" stroke-opacity="1" stroke-miterlimit="4"/></g></g><g clip-path="url(#f93c6c321b)"><g clip-path="url(#66b51a4959)"><path fill="#1cc29b" d="M 88.0625 82.019531 L 230.824219 54.90625 C 234.902344 54.128906 238.832031 56.800781 239.605469 60.871094 L 255.425781 144.175781 C 256.199219 148.246094 253.523438 152.171875 249.445312 152.945312 L 106.683594 180.058594 C 102.605469 180.832031 98.675781 178.160156 97.902344 174.09375 L 82.082031 90.789062 C 81.308594 86.71875 83.988281 82.792969 88.0625 82.019531 " fill-opacity="1" fill-rule="nonzero"/></g></g><g clip-path="url(#8b1ddfaf1a)"><g clip-path="url(#4834bbd28c)"><g clip-path="url(#13216b8095)"><g clip-path="url(#dcc388e2b8)"><path stroke-linecap="butt" transform="matrix(0.654775, -0.124355, 0.124137, 0.653628, 80.682584, 83.420355)" fill="none" stroke-linejoin="miter" d="M 11.270709 0.00114316 L 229.302542 0.00129693 C 235.531621 -0.00287311 240.57626 5.044646 240.576852 11.272015 L 240.575438 138.721351 C 240.57603 144.948721 235.532682 149.995342 229.304696 149.993743 L 11.272863 149.99359 C 5.044878 149.991991 0.000238817 144.944473 -0.00144665 138.722871 L -0.0000326558 11.273536 C -0.000624537 5.046166 5.048482 0.000640505 11.270709 0.00114316 " stroke="#404040" stroke-width="9.018323" stroke-opacity="1" stroke-miterlimit="4"/></g></g></g></g><g clip-path="url(#8197ad6ae5)"><g clip-path="url(#3f69671bb1)"><path fill="#1cc29b" d="M 84.867188 86.085938 L 229.601562 73.128906 C 233.734375 72.761719 237.382812 75.804688 237.753906 79.929688 L 245.3125 164.386719 C 245.683594 168.511719 242.632812 172.15625 238.5 172.523438 L 93.765625 185.480469 C 89.632812 185.851562 85.980469 182.808594 85.613281 178.683594 L 78.050781 94.226562 C 77.683594 90.101562 80.734375 86.457031 84.867188 86.085938 " fill-opacity="1" fill-rule="nonzero"/></g></g><g clip-path="url(#15c0a803fe)"><g clip-path="url(#5cb2defb45)"><g clip-path="url(#13b6a576b3)"><g clip-path="url(#9db0f5c3c4)"><path stroke-linecap="butt" transform="matrix(0.663824, -0.0594247, 0.0593207, 0.662662, 77.383513, 86.756448)" fill="none" stroke-linejoin="miter" d="M 11.273656 -0.000870133 L 229.304908 -0.00174765 C 235.530299 0.00240947 240.575604 5.046887 240.578337 11.272023 L 240.575502 138.722878 C 240.578235 144.948014 235.531434 149.995271 229.306043 149.991114 L 11.274791 149.991991 C 5.048876 149.993682 -0.00226606 144.948681 0.000838649 138.724068 L -0.00216368 11.27269 C 0.000941033 5.048078 5.047741 0.000820662 11.273656 -0.000870133 " stroke="#404040" stroke-width="9.018323" stroke-opacity="1" stroke-miterlimit="4"/></g></g></g></g><g clip-path="url(#72e1974041)"><path fill="#f1bf3d" d="M 161.554688 52.222656 C 141.347656 52.222656 124.964844 68.605469 124.964844 88.816406 C 124.964844 109.023438 141.347656 125.40625 161.554688 125.40625 C 181.761719 125.40625 198.144531 109.023438 198.144531 88.816406 C 198.144531 68.605469 181.761719 52.222656 161.554688 52.222656 " fill-opacity="1" fill-rule="nonzero"/></g><g clip-path="url(#54e8867cca)"><g clip-path="url(#61fb75f7a0)"><path stroke-linecap="butt" transform="matrix(0.665501, 0, 0, 0.663898, 124.963994, 52.222419)" fill="none" stroke-linejoin="miter" d="M 54.982161 0.000357457 C 24.618532 0.000357457 0.00127626 24.677075 0.00127626 55.11993 C 0.00127626 85.556901 24.618532 110.233618 54.982161 110.233618 C 85.345791 110.233618 109.963046 85.556901 109.963046 55.11993 C 109.963046 24.677075 85.345791 0.000357457 54.982161 0.000357457 " stroke="#404040" stroke-width="9.018323" stroke-opacity="1" stroke-miterlimit="4"/></g></g><g fill="#a9862b" fill-opacity="1"><g transform="translate(147.727517, 105.983425)"><g><path d="M 15.273438 -37.816406 L 10.421875 -37.816406 L 10.421875 -34.324219 C 7.320312 -33.839844 4.507812 -32.386719 2.667969 -30.011719 C 1.359375 -28.214844 0.777344 -26.179688 0.777344 -24.191406 C 0.777344 -19.246094 4.363281 -14.640625 9.550781 -14.640625 C 9.839844 -14.640625 10.132812 -14.640625 10.421875 -14.691406 L 10.421875 -4.703125 C 8.242188 -5.285156 6.011719 -7.273438 5.527344 -9.308594 L 5.476562 -9.355469 L 0.582031 -9.308594 L 0.582031 -8.96875 C 1.164062 -3.828125 5.867188 -0.824219 10.421875 -0.046875 L 10.421875 2.910156 L 15.273438 2.910156 L 15.273438 -0.046875 C 20.460938 -1.019531 25.308594 -3.34375 25.308594 -10.179688 C 25.308594 -16.433594 20.507812 -19.101562 15.273438 -19.296875 L 15.273438 -29.378906 C 17.257812 -29.089844 19.148438 -27.585938 19.636719 -25.5 L 24.433594 -25.984375 C 23.804688 -31.125 19.585938 -33.597656 15.273438 -34.324219 Z M 6.449219 -27.199219 L 6.496094 -27.199219 C 7.371094 -28.363281 8.871094 -29.039062 10.421875 -29.429688 L 10.421875 -19.636719 C 7.5625 -19.585938 5.671875 -22.011719 5.671875 -24.53125 C 5.671875 -25.453125 5.914062 -26.375 6.449219 -27.199219 Z M 15.273438 -4.703125 L 15.273438 -14.398438 C 18.8125 -14.640625 20.410156 -12.363281 20.410156 -9.9375 C 20.410156 -7.320312 18.566406 -4.605469 15.273438 -4.703125 Z M 15.273438 -4.703125 "/></g></g></g><g clip-path="url(#3871fb1ae3)"><path fill="#42b2fa" d="M 77.578125 94.980469 L 245.359375 94.980469 C 254.878906 94.980469 262.59375 102.714844 262.59375 112.257812 L 262.59375 230.726562 C 262.59375 240.269531 254.878906 248.003906 245.359375 248.003906 L 77.578125 248.003906 C 68.058594 248.003906 60.339844 240.269531 60.339844 230.726562 L 60.339844 112.257812 C 60.339844 102.714844 68.058594 94.980469 77.578125 94.980469 " fill-opacity="1" fill-rule="nonzero"/></g><g clip-path="url(#ba1f8216ef)"><g clip-path="url(#856265cdc0)"><path stroke-linecap="butt" transform="matrix(0.6648, 0, 0, 0.666308, 60.341362, 94.98131)" fill="none" stroke-linejoin="miter" d="M 25.927757 -0.00126232 L 278.30644 -0.00126232 C 292.62584 -0.00126232 304.230606 11.606545 304.230606 25.928704 L 304.230606 203.727489 C 304.230606 218.049648 292.62584 229.657455 278.30644 229.657455 L 25.927757 229.657455 C 11.608358 229.657455 -0.00228388 218.049648 -0.00228388 203.727489 L -0.00228388 25.928704 C -0.00228388 11.606545 11.608358 -0.00126232 25.927757 -0.00126232 " stroke="#404040" stroke-width="15.782065" stroke-opacity="1" stroke-miterlimit="4"/></g></g><g clip-path="url(#244d31e82c)"><path fill="#c9eaff" d="M 212.683594 148.96875 L 266.675781 148.96875 C 276.195312 148.96875 283.914062 156.648438 283.914062 166.121094 L 283.914062 176.390625 C 283.914062 185.863281 276.195312 193.542969 266.675781 193.542969 L 212.683594 193.542969 C 203.164062 193.542969 195.445312 185.863281 195.445312 176.390625 L 195.445312 166.121094 C 195.445312 156.648438 203.164062 148.96875 212.683594 148.96875 " fill-opacity="1" fill-rule="nonzero"/></g><g clip-path="url(#52668b06fb)"><g clip-path="url(#d83aa64b9e)"><path stroke-linecap="butt" transform="matrix(0.665078, 0, 0, 0.661763, 195.443452, 148.967433)" fill="none" stroke-linejoin="miter" d="M 25.921995 0.00198948 L 107.103763 0.00198948 C 121.417174 0.00198948 133.02296 11.606888 133.02296 25.921171 L 133.02296 41.439624 C 133.02296 55.753907 121.417174 67.358806 107.103763 67.358806 L 25.921995 67.358806 C 11.608584 67.358806 0.00279766 55.753907 0.00279766 41.439624 L 0.00279766 25.921171 C 0.00279766 11.606888 11.608584 0.00198948 25.921995 0.00198948 " stroke="#404040" stroke-width="9.018323" stroke-opacity="1" stroke-miterlimit="4"/></g></g><g clip-path="url(#873648936e)"><path fill="#01619f" d="M 221.082031 160.386719 C 215.019531 160.386719 210.105469 165.300781 210.105469 171.363281 C 210.105469 177.425781 215.019531 182.339844 221.082031 182.339844 C 227.144531 182.339844 232.0625 177.425781 232.0625 171.363281 C 232.0625 165.300781 227.144531 160.386719 221.082031 160.386719 " fill-opacity="1" fill-rule="nonzero"/></g><path stroke-linecap="round" transform="matrix(9.355162, 0, 0, 9.314369, 88.370823, 117.508145)" fill="none" stroke-linejoin="miter" d="M 0.499837 -0.0000356764 L 2.558777 -0.0000356764 " stroke="#01619f" stroke-width="1" stroke-opacity="1" stroke-miterlimit="4"/><path stroke-linecap="round" transform="matrix(9.355162, 0, 0, 9.314369, 127.657315, 117.508145)" fill="none" stroke-linejoin="miter" d="M 0.500111 -0.0000356764 L 2.559052 -0.0000356764 " stroke="#01619f" stroke-width="1" stroke-opacity="1" stroke-miterlimit="4"/><path stroke-linecap="round" transform="matrix(9.355162, 0, 0, 9.314369, 166.94379, 117.508145)" fill="none" stroke-linejoin="miter" d="M 0.49997 -0.0000356764 L 2.558911 -0.0000356764 " stroke="#01619f" stroke-width="1" stroke-opacity="1" stroke-miterlimit="4"/><path stroke-linecap="round" transform="matrix(9.355162, 0, 0, 9.314369, 206.230268, 117.508145)" fill="none" stroke-linejoin="miter" d="M 0.499829 -0.0000356764 L 2.558769 -0.0000356764 " stroke="#01619f" stroke-width="1" stroke-opacity="1" stroke-miterlimit="4"/><path stroke-linecap="round" transform="matrix(9.355162, 0, 0, 9.314369, 88.370823, 224.937066)" fill="none" stroke-linejoin="miter" d="M 0.499837 0.0000466344 L 2.558777 0.0000466344 " stroke="#01619f" stroke-width="1" stroke-opacity="1" stroke-miterlimit="4"/><path stroke-linecap="round" transform="matrix(9.355162, 0, 0, 9.314369, 127.657315, 224.937066)" fill="none" stroke-linejoin="miter" d="M 0.500111 0.0000466344 L 2.559052 0.0000466344 " stroke="#01619f" stroke-width="1" stroke-opacity="1" stroke-miterlimit="4"/><path stroke-linecap="round" transform="matrix(9.355162, 0, 0, 9.314369, 166.94379, 224.937066)" fill="none" stroke-linejoin="miter" d="M 0.49997 0.0000466344 L 2.558911 0.0000466344 " stroke="#01619f" stroke-width="1" stroke-opacity="1" stroke-miterlimit="4"/><path stroke-linecap="round" transform="matrix(9.355162, 0, 0, 9.314369, 206.230268, 224.937066)" fill="none" stroke-linejoin="miter" d="M 0.499829 0.0000466344 L 2.558769 0.0000466344 " stroke="#01619f" stroke-width="1" stroke-opacity="1" stroke-miterlimit="4"/><g fill="#404040" fill-opacity="1"><g transform="translate(319.745029, 191.633162)"><g><path d="M 23.59375 -61.9375 C 24.664062 -59.96875 25.898438 -57.535156 27.296875 -54.640625 C 28.703125 -51.753906 30.164062 -48.628906 31.6875 -45.265625 C 33.207031 -41.898438 34.710938 -38.457031 36.203125 -34.9375 C 37.691406 -31.425781 39.085938 -28.125 40.390625 -25.03125 C 41.703125 -28.125 43.101562 -31.425781 44.59375 -34.9375 C 46.082031 -38.457031 47.585938 -41.898438 49.109375 -45.265625 C 50.628906 -48.628906 52.085938 -51.753906 53.484375 -54.640625 C 54.890625 -57.535156 56.128906 -59.96875 57.203125 -61.9375 L 69.890625 -61.9375 C 70.484375 -57.820312 71.03125 -53.21875 71.53125 -48.125 C 72.039062 -43.03125 72.488281 -37.726562 72.875 -32.21875 C 73.269531 -26.707031 73.628906 -21.179688 73.953125 -15.640625 C 74.285156 -10.097656 74.570312 -4.882812 74.8125 0 L 61.21875 0 C 61.039062 -6.019531 60.800781 -12.570312 60.5 -19.65625 C 60.207031 -26.75 59.765625 -33.898438 59.171875 -41.109375 C 58.097656 -38.609375 56.90625 -35.835938 55.59375 -32.796875 C 54.28125 -29.765625 52.984375 -26.726562 51.703125 -23.6875 C 50.421875 -20.644531 49.179688 -17.738281 47.984375 -14.96875 C 46.796875 -12.195312 45.785156 -9.828125 44.953125 -7.859375 L 35.21875 -7.859375 C 34.382812 -9.828125 33.367188 -12.195312 32.171875 -14.96875 C 30.984375 -17.738281 29.75 -20.644531 28.46875 -23.6875 C 27.1875 -26.726562 25.890625 -29.765625 24.578125 -32.796875 C 23.265625 -35.835938 22.070312 -38.609375 21 -41.109375 C 20.40625 -33.898438 19.957031 -26.75 19.65625 -19.65625 C 19.363281 -12.570312 19.128906 -6.019531 18.953125 0 L 5.359375 0 C 5.597656 -4.882812 5.878906 -10.097656 6.203125 -15.640625 C 6.535156 -21.179688 6.894531 -26.707031 7.28125 -32.21875 C 7.664062 -37.726562 8.113281 -43.03125 8.625 -48.125 C 9.132812 -53.21875 9.6875 -57.820312 10.28125 -61.9375 Z M 23.59375 -61.9375 "/></g></g></g><g fill="#404040" fill-opacity="1"><g transform="translate(399.906296, 191.633162)"><g><path d="M 24.21875 -9.296875 C 25.53125 -9.296875 26.78125 -9.320312 27.96875 -9.375 C 29.164062 -9.4375 30.117188 -9.53125 30.828125 -9.65625 L 30.828125 -19.75 C 30.296875 -19.875 29.492188 -19.992188 28.421875 -20.109375 C 27.347656 -20.222656 26.363281 -20.28125 25.46875 -20.28125 C 24.21875 -20.28125 23.039062 -20.207031 21.9375 -20.0625 C 20.832031 -19.914062 19.863281 -19.632812 19.03125 -19.21875 C 18.195312 -18.800781 17.539062 -18.234375 17.0625 -17.515625 C 16.59375 -16.796875 16.359375 -15.90625 16.359375 -14.84375 C 16.359375 -12.75 17.054688 -11.300781 18.453125 -10.5 C 19.859375 -9.695312 21.78125 -9.296875 24.21875 -9.296875 Z M 23.140625 -48.265625 C 27.078125 -48.265625 30.351562 -47.816406 32.96875 -46.921875 C 35.59375 -46.023438 37.695312 -44.742188 39.28125 -43.078125 C 40.863281 -41.410156 41.976562 -39.382812 42.625 -37 C 43.28125 -34.613281 43.609375 -31.960938 43.609375 -29.046875 L 43.609375 -1.34375 C 41.703125 -0.925781 39.050781 -0.4375 35.65625 0.125 C 32.257812 0.695312 28.148438 0.984375 23.328125 0.984375 C 20.285156 0.984375 17.523438 0.710938 15.046875 0.171875 C 12.578125 -0.359375 10.445312 -1.234375 8.65625 -2.453125 C 6.875 -3.679688 5.503906 -5.273438 4.546875 -7.234375 C 3.597656 -9.203125 3.125 -11.617188 3.125 -14.484375 C 3.125 -17.222656 3.675781 -19.546875 4.78125 -21.453125 C 5.882812 -23.359375 7.359375 -24.875 9.203125 -26 C 11.046875 -27.132812 13.160156 -27.953125 15.546875 -28.453125 C 17.929688 -28.960938 20.40625 -29.21875 22.96875 -29.21875 C 24.695312 -29.21875 26.226562 -29.144531 27.5625 -29 C 28.90625 -28.851562 29.992188 -28.660156 30.828125 -28.421875 L 30.828125 -29.671875 C 30.828125 -31.929688 30.140625 -33.75 28.765625 -35.125 C 27.398438 -36.5 25.019531 -37.1875 21.625 -37.1875 C 19.363281 -37.1875 17.128906 -37.019531 14.921875 -36.6875 C 12.722656 -36.363281 10.816406 -35.898438 9.203125 -35.296875 L 7.5 -46.03125 C 8.28125 -46.269531 9.25 -46.519531 10.40625 -46.78125 C 11.570312 -47.050781 12.835938 -47.289062 14.203125 -47.5 C 15.578125 -47.707031 17.023438 -47.882812 18.546875 -48.03125 C 20.066406 -48.1875 21.597656 -48.265625 23.140625 -48.265625 Z M 23.140625 -48.265625 "/></g></g></g><g fill="#404040" fill-opacity="1"><g transform="translate(449.325684, 191.633162)"><g><path d="M 6.25 -45.40625 C 8.519531 -46.0625 11.441406 -46.671875 15.015625 -47.234375 C 18.585938 -47.796875 22.34375 -48.078125 26.28125 -48.078125 C 30.269531 -48.078125 33.585938 -47.554688 36.234375 -46.515625 C 38.890625 -45.472656 40.988281 -44 42.53125 -42.09375 C 44.082031 -40.1875 45.1875 -37.921875 45.84375 -35.296875 C 46.5 -32.679688 46.828125 -29.765625 46.828125 -26.546875 L 46.828125 0 L 33.515625 0 L 33.515625 -24.9375 C 33.515625 -29.226562 32.945312 -32.265625 31.8125 -34.046875 C 30.6875 -35.835938 28.570312 -36.734375 25.46875 -36.734375 C 24.519531 -36.734375 23.507812 -36.6875 22.4375 -36.59375 C 21.363281 -36.507812 20.410156 -36.40625 19.578125 -36.28125 L 19.578125 0 L 6.25 0 Z M 6.25 -45.40625 "/></g></g></g><g fill="#404040" fill-opacity="1"><g transform="translate(501.962237, 191.633162)"><g><path d="M 4.015625 -23.140625 C 4.015625 -27.316406 4.65625 -30.96875 5.9375 -34.09375 C 7.21875 -37.21875 8.898438 -39.820312 10.984375 -41.90625 C 13.078125 -44 15.476562 -45.582031 18.1875 -46.65625 C 20.894531 -47.726562 23.679688 -48.265625 26.546875 -48.265625 C 33.210938 -48.265625 38.484375 -46.222656 42.359375 -42.140625 C 46.234375 -38.054688 48.171875 -32.050781 48.171875 -24.125 C 48.171875 -23.351562 48.140625 -22.503906 48.078125 -21.578125 C 48.023438 -20.660156 47.96875 -19.84375 47.90625 -19.125 L 17.703125 -19.125 C 17.992188 -16.382812 19.269531 -14.207031 21.53125 -12.59375 C 23.800781 -10.988281 26.84375 -10.1875 30.65625 -10.1875 C 33.09375 -10.1875 35.488281 -10.410156 37.84375 -10.859375 C 40.195312 -11.304688 42.117188 -11.859375 43.609375 -12.515625 L 45.40625 -1.703125 C 44.6875 -1.335938 43.726562 -0.976562 42.53125 -0.625 C 41.34375 -0.269531 40.019531 0.0390625 38.5625 0.3125 C 37.101562 0.582031 35.539062 0.804688 33.875 0.984375 C 32.207031 1.160156 30.539062 1.25 28.875 1.25 C 24.632812 1.25 20.953125 0.625 17.828125 -0.625 C 14.703125 -1.875 12.109375 -3.585938 10.046875 -5.765625 C 7.992188 -7.941406 6.472656 -10.519531 5.484375 -13.5 C 4.503906 -16.476562 4.015625 -19.691406 4.015625 -23.140625 Z M 35.296875 -28.25 C 35.242188 -29.375 35.050781 -30.472656 34.71875 -31.546875 C 34.394531 -32.617188 33.890625 -33.570312 33.203125 -34.40625 C 32.515625 -35.238281 31.648438 -35.921875 30.609375 -36.453125 C 29.566406 -36.992188 28.269531 -37.265625 26.71875 -37.265625 C 25.226562 -37.265625 23.945312 -37.007812 22.875 -36.5 C 21.800781 -36 20.90625 -35.332031 20.1875 -34.5 C 19.476562 -33.664062 18.929688 -32.695312 18.546875 -31.59375 C 18.160156 -30.488281 17.878906 -29.375 17.703125 -28.25 Z M 35.296875 -28.25 "/></g></g></g><g fill="#404040" fill-opacity="1"><g transform="translate(554.151964, 191.633162)"><g><path d="M 48 -47.015625 C 45.3125 -37.953125 42.507812 -29.457031 39.59375 -21.53125 C 36.675781 -13.613281 33.488281 -5.929688 30.03125 1.515625 C 28.78125 4.203125 27.53125 6.484375 26.28125 8.359375 C 25.03125 10.234375 23.660156 11.78125 22.171875 13 C 20.679688 14.226562 18.992188 15.125 17.109375 15.6875 C 15.234375 16.25 13.046875 16.53125 10.546875 16.53125 C 8.460938 16.53125 6.539062 16.335938 4.78125 15.953125 C 3.019531 15.566406 1.578125 15.132812 0.453125 14.65625 L 2.765625 4.015625 C 4.140625 4.492188 5.363281 4.820312 6.4375 5 C 7.507812 5.175781 8.640625 5.265625 9.828125 5.265625 C 12.210938 5.265625 14.046875 4.625 15.328125 3.34375 C 16.609375 2.070312 17.695312 0.300781 18.59375 -1.96875 C 15.550781 -7.925781 12.507812 -14.613281 9.46875 -22.03125 C 6.4375 -29.445312 3.578125 -37.773438 0.890625 -47.015625 L 15.015625 -47.015625 C 15.609375 -44.691406 16.304688 -42.171875 17.109375 -39.453125 C 17.921875 -36.742188 18.769531 -34.003906 19.65625 -31.234375 C 20.550781 -28.460938 21.460938 -25.765625 22.390625 -23.140625 C 23.316406 -20.523438 24.195312 -18.144531 25.03125 -16 C 25.800781 -18.144531 26.601562 -20.523438 27.4375 -23.140625 C 28.269531 -25.765625 29.085938 -28.460938 29.890625 -31.234375 C 30.703125 -34.003906 31.476562 -36.742188 32.21875 -39.453125 C 32.96875 -42.171875 33.640625 -44.691406 34.234375 -47.015625 Z M 48 -47.015625 "/></g></g></g><g fill="#404040" fill-opacity="1"><g transform="translate(603.035143, 191.633162)"><g><path d="M 26.640625 -69.359375 C 29.140625 -69.359375 31.429688 -69.101562 33.515625 -68.59375 C 35.597656 -68.082031 37.207031 -67.59375 38.34375 -67.125 L 35.75 -56.484375 C 34.5625 -57.023438 33.265625 -57.425781 31.859375 -57.6875 C 30.460938 -57.957031 29.164062 -58.09375 27.96875 -58.09375 C 26.363281 -58.09375 25.007812 -57.867188 23.90625 -57.421875 C 22.800781 -56.972656 21.9375 -56.359375 21.3125 -55.578125 C 20.6875 -54.804688 20.238281 -53.882812 19.96875 -52.8125 C 19.707031 -51.75 19.578125 -50.585938 19.578125 -49.328125 L 19.578125 -47.015625 L 36.015625 -47.015625 L 36.015625 -35.921875 L 19.578125 -35.921875 L 19.578125 0 L 6.25 0 L 6.25 -49.515625 C 6.25 -55.585938 7.960938 -60.410156 11.390625 -63.984375 C 14.816406 -67.566406 19.898438 -69.359375 26.640625 -69.359375 Z M 26.640625 -69.359375 "/></g></g></g><g fill="#404040" fill-opacity="1"><g transform="translate(640.747583, 191.633162)"><g><path d="M 48 -47.015625 C 45.3125 -37.953125 42.507812 -29.457031 39.59375 -21.53125 C 36.675781 -13.613281 33.488281 -5.929688 30.03125 1.515625 C 28.78125 4.203125 27.53125 6.484375 26.28125 8.359375 C 25.03125 10.234375 23.660156 11.78125 22.171875 13 C 20.679688 14.226562 18.992188 15.125 17.109375 15.6875 C 15.234375 16.25 13.046875 16.53125 10.546875 16.53125 C 8.460938 16.53125 6.539062 16.335938 4.78125 15.953125 C 3.019531 15.566406 1.578125 15.132812 0.453125 14.65625 L 2.765625 4.015625 C 4.140625 4.492188 5.363281 4.820312 6.4375 5 C 7.507812 5.175781 8.640625 5.265625 9.828125 5.265625 C 12.210938 5.265625 14.046875 4.625 15.328125 3.34375 C 16.609375 2.070312 17.695312 0.300781 18.59375 -1.96875 C 15.550781 -7.925781 12.507812 -14.613281 9.46875 -22.03125 C 6.4375 -29.445312 3.578125 -37.773438 0.890625 -47.015625 L 15.015625 -47.015625 C 15.609375 -44.691406 16.304688 -42.171875 17.109375 -39.453125 C 17.921875 -36.742188 18.769531 -34.003906 19.65625 -31.234375 C 20.550781 -28.460938 21.460938 -25.765625 22.390625 -23.140625 C 23.316406 -20.523438 24.195312 -18.144531 25.03125 -16 C 25.800781 -18.144531 26.601562 -20.523438 27.4375 -23.140625 C 28.269531 -25.765625 29.085938 -28.460938 29.890625 -31.234375 C 30.703125 -34.003906 31.476562 -36.742188 32.21875 -39.453125 C 32.96875 -42.171875 33.640625 -44.691406 34.234375 -47.015625 Z M 48 -47.015625 "/></g></g></g></svg>